<?xml version="1.0" standalone="no"?><!DOCTYPE svg PUBLIC "-//W3C//DTD SVG 1.1//EN" "http://www.w3.org/Graphics/SVG/1.1/DTD/svg11.dtd"><svg t="1707535484750" class="icon" viewBox="0 0 1024 1024" version="1.1" xmlns="http://www.w3.org/2000/svg" p-id="12723" xmlns:xlink="http://www.w3.org/1999/xlink" width="200" height="200"><path d="M910.222222 739.555556h-113.777778v-113.777778h-56.888888v113.777778h-113.777778v56.888888h113.777778v113.777778h56.888888v-113.777778h113.777778v-56.888888z" fill="#1296db" p-id="12724"></path><path d="M654.222222 568.888889h28.444445a85.333333 85.333333 0 0 0 42.666666-85.333333V341.333333a256 256 0 0 0 0-99.555555c-14.222222-42.666667-42.666667-56.888889-56.888889-56.888889s0 0 0-14.222222H483.555556a128 128 0 0 0-99.555556 71.111111c-42.666667 14.222222-71.111111 85.333333-71.111111 170.666666v71.111112a99.555556 99.555556 0 0 0 71.111111 99.555555l56.888889 56.888889c0 71.111111-241.777778 99.555556-256 184.888889v71.111111h526.222222v-71.111111h-113.777778v-113.777778h113.777778c-56.888889-28.444444-113.777778-56.888889-113.777778-71.111111z" fill="#1296db" p-id="12725"></path></svg>