<?xml version="1.0" standalone="no"?><!DOCTYPE svg PUBLIC "-//W3C//DTD SVG 1.1//EN" "http://www.w3.org/Graphics/SVG/1.1/DTD/svg11.dtd"><svg t="1707737981425" class="icon" viewBox="0 0 1024 1024" version="1.1" xmlns="http://www.w3.org/2000/svg" p-id="4224" data-darkreader-inline-fill="" xmlns:xlink="http://www.w3.org/1999/xlink" width="200" height="200"><path d="M780.190476 658.285714V780.190476h121.904762a24.380952 24.380952 0 1 1 0 48.761905h-121.953524v121.904762a24.380952 24.380952 0 0 1-19.943619 23.990857L755.809524 975.238095a24.380952 24.380952 0 0 1-24.380953-24.380952l-0.048761-121.904762H609.52381a24.380952 24.380952 0 1 1 0-48.761905H731.428571v-121.904762a24.380952 24.380952 0 1 1 48.761905 0zM487.619048 97.52381a243.809524 243.809524 0 0 1 112.006095 460.409904c42.374095 16.725333 80.944762 42.812952 113.810286 76.01981l-75.337143-0.097524a261.948952 261.948952 0 0 0-140.092953-48.518095L487.619048 585.142857c-142.628571 0-263.41181 120.344381-287.98781 280.917333L197.973333 877.714286H536.380952v48.761904H146.285714c0-170.617905 95.817143-315.63581 229.327238-368.64A243.809524 243.809524 0 0 1 487.619048 97.52381z m0 48.761904a195.047619 195.047619 0 1 0 0 390.095238 195.047619 195.047619 0 0 0 0-390.095238z" fill="#1296db" p-id="4225" data-darkreader-inline-fill="" style="--darkreader-inline-fill: #0e78af;"></path></svg>