<?xml version="1.0" standalone="no"?><!DOCTYPE svg PUBLIC "-//W3C//DTD SVG 1.1//EN" "http://www.w3.org/Graphics/SVG/1.1/DTD/svg11.dtd"><svg t="1707737581585" class="icon" viewBox="0 0 1024 1024" version="1.1" xmlns="http://www.w3.org/2000/svg" p-id="5190" data-darkreader-inline-fill="" xmlns:xlink="http://www.w3.org/1999/xlink" width="200" height="200"><path d="M434.125 493.312c-27.187-16.691-48.282-35.84-64.359-60.109-58.163-87.91-37.632-226.253 67.277-279.757 65.536-33.433 149.453-16.076 197.786 43.11 52.685 64.564 62.72 135.63 29.03 212.583-13.465 30.72-32 56.986-59.75 76.237-2.1 1.485-3.994 3.226-5.94 4.966-0.511 0.461-0.767 1.23-1.996 3.328 6.246 1.536 12.134 2.714 17.92 4.404 72.038 20.582 132.403 57.804 174.029 121.958 23.193 35.738 37.785 74.957 44.441 116.685 4.813 30.054 7.22 60.62 8.909 91.033 1.434 26.164-11.878 41.37-39.629 49.613-34.253 10.138-69.632 11.418-104.909 12.288-135.782 3.328-271.616 4.455-407.347-2.099-21.145-1.024-42.393-5.069-62.976-10.24-30.157-7.578-40.601-23.86-39.68-54.784 1.178-40.192 5.069-79.923 16.487-118.733 29.286-99.533 93.184-165.683 191.027-199.373 6.246-2.15 12.544-4.3 18.893-6.092 5.939-1.741 11.98-2.919 20.787-5.018z" fill="#1296db" p-id="5191" data-darkreader-inline-fill="" style="--darkreader-inline-fill: #0e78af;"></path><path d="M315.904 187.136c-56.832 97.69-53.76 194.1 6.554 290.458-127.488 62.515-183.91 171.93-199.732 308.48-23.603 0.563-47.001 1.484-68.198-9.216-7.27-3.636-15.718-12.698-16.486-20.02-2.51-24.678-4.813-50.022-1.844-74.444 8.5-69.07 39.22-127.335 92.621-172.8 25.498-21.71 54.63-37.172 86.733-46.797 3.482-1.024 6.912-2.15 12.34-3.84-37.428-20.736-61.646-50.279-73.217-89.754-11.673-39.731-7.475-78.08 11.981-114.33 30.618-56.985 92.62-84.838 149.248-67.737z" fill="#1296db" p-id="5192" data-darkreader-inline-fill="" style="--darkreader-inline-fill: #0e78af;"></path><path d="M699.7 477.542c62.054-97.126 61.746-194.355 6.348-293.427 28.774-8.704 56.73-6.656 83.354 6.707 49.868 24.986 77.312 66.304 81.459 121.396 4.3 56.832-16.128 103.782-63.386 137.523-4.454 3.174-9.523 5.427-15.36 8.704 2.765 1.433 4.71 2.765 6.861 3.481 104.96 35.277 163.789 110.336 184.32 216.832 4.506 23.399 3.277 48.18 2.714 72.244-0.41 16.128-11.47 26.624-26.88 29.593-19.252 3.687-38.964 5.171-59.75 7.731-14.286-139.11-71.63-247.859-199.68-310.784z" fill="#1296db" p-id="5193" data-darkreader-inline-fill="" style="--darkreader-inline-fill: #0e78af;"></path><path d="M793.549 628.838c-1.792-2.97-3.533-5.939-5.427-8.908-41.626-64.154-101.99-101.376-174.03-121.959-5.785-1.638-11.622-2.867-17.92-4.403 1.23-2.1 1.434-2.867 1.998-3.328 1.945-1.69 3.84-3.482 5.939-4.966 27.75-19.252 46.285-45.517 59.75-76.237 33.69-76.954 23.706-148.02-29.03-212.583-48.333-59.187-132.25-76.492-197.786-43.11-104.909 53.504-125.44 191.846-67.277 279.757 16.077 24.32 37.12 43.417 64.359 60.109-8.807 2.048-14.848 3.276-20.787 4.915-6.35 1.792-12.647 3.942-18.893 6.093-97.843 33.69-161.741 99.84-191.027 199.372-11.418 38.81-15.31 78.541-16.487 118.733-0.921 30.874 9.523 47.207 39.68 54.784 9.114 2.304 18.432 4.301 27.75 5.99 12.903 0.82 25.857 1.28 38.913 1.28 205.824 0.052 388.096-100.659 500.275-255.539z" fill="#1296db" p-id="5194" data-darkreader-inline-fill="" style="--darkreader-inline-fill: #0e78af;"></path><path d="M798.976 461.875c-2.15-0.717-4.045-2.048-6.86-3.481 5.836-3.277 10.905-5.53 15.36-8.704 47.257-33.741 67.686-80.692 63.385-137.524-4.147-55.09-31.59-96.41-81.46-121.395-26.623-13.363-54.579-15.411-83.353-6.707 55.398 99.072 55.654 196.3-6.349 293.427 53.76 26.42 95.027 60.928 125.901 102.349a615.546 615.546 0 0 0 41.78-85.35c-20.174-13.056-42.906-24.064-68.404-32.615z" fill="#1296db" p-id="5195" data-darkreader-inline-fill="" style="--darkreader-inline-fill: #0e78af;"></path><path d="M315.904 187.136c-56.627-17.1-118.58 10.752-149.197 67.738-19.456 36.25-23.654 74.598-11.98 114.33 11.57 39.474 35.84 69.017 73.215 89.753-5.427 1.69-8.857 2.816-12.339 3.84-32.153 9.625-61.235 25.088-86.733 46.797-47.36 40.294-76.8 90.726-88.832 149.81a620.01 620.01 0 0 0 84.378 5.786c8.96 0 17.869-0.256 26.778-0.614 30.515-79.923 84.326-144.384 171.264-186.982-60.314-96.308-63.386-192.768-6.554-290.458z" fill="#1296db" p-id="5196" data-darkreader-inline-fill="" style="--darkreader-inline-fill: #0e78af;"></path><path d="M394.445 504.32c-81.869 28.211-139.879 79.206-173.824 153.395 205.107-32.102 376.678-165.171 462.387-346.726-2.56-40.09-18.688-78.285-48.18-114.432-48.332-59.187-132.249-76.493-197.785-43.11-104.909 53.503-125.44 191.846-67.277 279.756 16.077 24.32 37.12 43.418 64.359 60.109-8.807 2.048-14.848 3.277-20.787 4.915-6.35 1.843-12.596 3.943-18.893 6.093z" fill="#1296db" p-id="5197" data-darkreader-inline-fill="" style="--darkreader-inline-fill: #0e78af;"></path><path d="M706.048 184.115c5.12 9.114 9.574 18.227 13.773 27.341a644.233 644.233 0 0 0 7.833-31.898c-7.168 0.87-14.336 2.407-21.606 4.557z" fill="#1296db" p-id="5198" data-darkreader-inline-fill="" style="--darkreader-inline-fill: #37afef;"></path><path d="M166.707 254.874c-19.456 36.25-23.654 74.598-11.98 114.33 4.607 15.718 11.315 29.798 19.967 42.393a614.656 614.656 0 0 0 103.527-47.719c-9.063-58.624 3.225-117.452 37.734-176.742-56.678-17.1-118.681 10.752-149.248 67.738z m270.387-101.428c-67.02 34.15-99.532 102.912-99.174 171.06 67.584-50.432 124.518-114.33 166.758-187.802-23.244 0.512-46.387 5.94-67.584 16.742z" fill="#1296db" p-id="5199" data-darkreader-inline-fill="" style="--darkreader-inline-fill: #0e78af;"></path></svg>